<?xml version="1.0" encoding="utf-8"?>
<!-- Generator: Adobe Illustrator 15.0.0, SVG Export Plug-In  -->
<!DOCTYPE svg PUBLIC "-//W3C//DTD SVG 1.1//EN" "http://www.w3.org/Graphics/SVG/1.1/DTD/svg11.dtd" [
	<!ENTITY ns_flows "http://ns.adobe.com/Flows/1.0/">
]>
<svg version="1.1"
	 xmlns="http://www.w3.org/2000/svg" xmlns:xlink="http://www.w3.org/1999/xlink" xmlns:a="http://ns.adobe.com/AdobeSVGViewerExtensions/3.0/"
	 x="0px" y="0px" width="42px" height="57px" viewBox="-1.6 -0.7 42 57"
	 style="overflow:visible;enable-background:new -1.6 -0.7 42 57;" xml:space="preserve">
<defs>
</defs>
<path style="fill:#9B0505;" d="M10.4,42c2.8,0.4,1.7,3.4,1.7,3.4c-2.2,3.2-5.5,3-5.5,3c1,2.2-2.1,7.4-2.1,7.4c0,1.3-1.1,0-1.1,0
	c1.6-4.5,0.1-6.4,0.1-6.4C3.6,45.2,10.4,42,10.4,42z"/>
<path style="fill:#9B0505;" d="M18.2,25.4c0.2-3.9,10.3-8.6,10.3-8.6c5.6-2.1,6.7,1.5,6.7,1.5c0.3,1.6-2-0.2-2-0.2
	c-4.7-1.3-8.8,2.9-8.8,2.9C19.6,30.7,18.2,25.4,18.2,25.4z"/>
<path style="fill:#F00000;" d="M7.6,29.5C1.3,30.7-5,43.1,6,48.5c5.5,2.7,12.1-3.3,16.9-10.9c4.8-7.6,3.9-15.2,0.2-17.6
	C19.3,17.7,16.5,27.8,7.6,29.5z"/>
<path style="fill:#8C714E;" d="M7.7,29.1C1.8,30-4.7,40.4,5.4,45.7c5.1,2.7,11.6-1.7,16.3-8.6s4.2-14,0.7-16.3
	C19,18.5,16,27.8,7.7,29.1z"/>
<path style="fill:#B80026;" d="M7.9,30.3C3.3,30.5-2.6,38,4.6,43c3.6,2.5,9-0.4,13.2-5.3c4.2-4.9,4.4-10.5,2-12.5
	C17.4,23.1,14.3,30.1,7.9,30.3z"/>
<path style="fill:#CE2027;" d="M8,30.6c-4.2,0.2-9.6,7-3,11.6c3.3,2.3,8.3-0.3,12.2-4.9c3.9-4.5,4.1-9.6,1.8-11.5
	C16.8,23.9,14,30.4,8,30.6z"/>
<path style="fill:#FC9C00;" d="M7.6,32c-3.1,0.1-7,5.1-2.2,8.5c2.4,1.7,6.1-0.2,8.9-3.6c2.8-3.3,3-7,1.3-8.4
	C14,27.2,11.9,31.9,7.6,32z"/>
<ellipse style="fill:#F00000;" cx="21.2" cy="10.8" rx="7.7" ry="10.8"/>
<ellipse style="fill:#FFFFFF;" cx="20.7" cy="10.8" rx="7.3" ry="10.3"/>
<path style="fill:#8C714E;" d="M13,12.1c0,5.2,3,9.5,6.8,9.5c3.7,0,6.8-4.2,6.8-9.5c0-5.2-3-9.5-6.8-9.5C16,2.7,13,6.9,13,12.1z"/>
<ellipse style="fill:#D4D1AB;" cx="19.3" cy="12.7" rx="6.1" ry="8.6"/>
<path style="fill:#214A23;" d="M6.6,47.6c-2.3,1.1-4.9-4-2.2-2.8C5,45,5,45.6,5.7,45.7c0.8,0.1,1.1-0.4,1.8-0.2
	c2.2,0.7,0.5,2.2-0.9,2.2"/>
<path style="fill:#F00000;" d="M21.4,20.8c2.8-2.7,13.4,0.9,13.4,0.9c5.5,2.3,3.9,5.7,3.9,5.7c-0.9,1.4-1.3-1.5-1.3-1.5
	c-2.5-4.2-8.4-3.9-8.4-3.9C18.9,25.7,21.4,20.8,21.4,20.8z"/>
<circle style="fill:#D4D1AB;" cx="7.2" cy="36.2" r="3"/>
<circle style="fill:#CE2027;" cx="7.6" cy="36.1" r="1.2"/>
<line style="fill:none;stroke:#FFFFFF;stroke-linecap:round;stroke-miterlimit:10;" x1="17.7" y1="6.3" x2="17.7" y2="17.2"/>
<ellipse style="fill:#CE2027;" cx="17.3" cy="12.9" rx="2" ry="0.8"/>
<path style="fill:#F00000;" d="M9.6,42.9c2.7-0.4,2.2,2.3,2.2,2.3c-1.4,3.1-2.6,3.7-2.6,3.7c1.3,1.5,5.5,1.8,5.5,1.8
	c0.2,1.1-0.9,1.2-0.9,1.2C9.7,50.8,7,50.9,7,50.9C6.2,47.4,9.6,42.9,9.6,42.9z"/>
</svg>
