<?xml version="1.0" encoding="utf-8"?>
<!-- Generator: Adobe Illustrator 15.0.0, SVG Export Plug-In  -->
<!DOCTYPE svg PUBLIC "-//W3C//DTD SVG 1.1//EN" "http://www.w3.org/Graphics/SVG/1.1/DTD/svg11.dtd" [
	<!ENTITY ns_flows "http://ns.adobe.com/Flows/1.0/">
]>
<svg version="1.1"
	 xmlns="http://www.w3.org/2000/svg" xmlns:xlink="http://www.w3.org/1999/xlink" xmlns:a="http://ns.adobe.com/AdobeSVGViewerExtensions/3.0/"
	 x="0px" y="0px" width="42px" height="57px" viewBox="-1.6 -0.7 42 57"
	 style="overflow:visible;enable-background:new -1.6 -0.7 42 57;" xml:space="preserve">
<defs>
</defs>
<path style="fill:#9B0505;" d="M28.5,42c-2.8,0.4-1.7,3.4-1.7,3.4c2.2,3.2,5.5,3,5.5,3c-1,2.2,2.1,7.4,2.1,7.4c0,1.3,1.1,0,1.1,0
	c-1.6-4.5-0.1-6.4-0.1-6.4C35.4,45.2,28.5,42,28.5,42z"/>
<path style="fill:#9B0505;" d="M20.8,25.4c-0.2-3.9-10.3-8.6-10.3-8.6c-5.6-2.1-6.7,1.5-6.7,1.5c-0.3,1.6,2-0.2,2-0.2
	c4.7-1.3,8.8,2.9,8.8,2.9C19.3,30.7,20.8,25.4,20.8,25.4z"/>
<path style="fill:#F00000;" d="M31.4,29.5c6.3,1.2,12.6,13.6,1.6,19c-5.5,2.7-12.1-3.3-16.9-10.9C11.2,30,12.1,22.3,15.9,20
	C19.6,17.7,22.5,27.8,31.4,29.5z"/>
<path style="fill:#8C714E;" d="M31.3,29.1c5.9,0.9,12.4,11.3,2.3,16.7C28.5,48.4,22,44,17.3,37.1s-4.2-14-0.7-16.3
	C20,18.5,23,27.8,31.3,29.1z"/>
<path style="fill:#B80026;" d="M31.1,30.3c4.6,0.2,10.5,7.7,3.2,12.7c-3.6,2.5-9-0.4-13.2-5.3c-4.2-4.9-4.4-10.5-2-12.5
	C21.5,23.1,24.6,30.1,31.1,30.3z"/>
<path style="fill:#CE2027;" d="M31,30.6c4.2,0.2,9.6,7,3,11.6c-3.3,2.3-8.3-0.3-12.2-4.9c-3.9-4.5-4.1-9.6-1.8-11.5
	C22.2,23.9,25,30.4,31,30.6z"/>
<path style="fill:#FC9C00;" d="M31.4,32c3.1,0.1,7,5.1,2.2,8.5c-2.4,1.7-6.1-0.2-8.9-3.6c-2.8-3.3-3-7-1.3-8.4
	C24.9,27.2,27,31.9,31.4,32z"/>
<ellipse style="fill:#F00000;" cx="17.7" cy="10.8" rx="7.7" ry="10.8"/>
<ellipse style="fill:#FFFFFF;" cx="18.3" cy="10.8" rx="7.3" ry="10.3"/>
<path style="fill:#8C714E;" d="M26,12.1c0,5.2-3,9.5-6.8,9.5c-3.7,0-6.8-4.2-6.8-9.5c0-5.2,3-9.5,6.8-9.5C23,2.7,26,6.9,26,12.1z"/>
<ellipse style="fill:#D4D1AB;" cx="19.6" cy="12.7" rx="6.1" ry="8.6"/>
<path style="fill:#214A23;" d="M32.3,47.6c2.3,1.1,4.9-4,2.2-2.8C34,45,34,45.6,33.3,45.7c-0.8,0.1-1.1-0.4-1.8-0.2
	c-2.2,0.7-0.5,2.2,0.9,2.2"/>
<path style="fill:#F00000;" d="M17.5,20.8c-2.8-2.7-13.4,0.9-13.4,0.9c-5.5,2.3-3.9,5.7-3.9,5.7c0.9,1.4,1.3-1.5,1.3-1.5
	c2.5-4.2,8.4-3.9,8.4-3.9C20.1,25.7,17.5,20.8,17.5,20.8z"/>
<circle style="fill:#D4D1AB;" cx="31.8" cy="36.2" r="3"/>
<circle style="fill:#CE2027;" cx="31.4" cy="36.1" r="1.2"/>
<line style="fill:none;stroke:#FFFFFF;stroke-linecap:round;stroke-miterlimit:10;" x1="21.3" y1="6.3" x2="21.3" y2="17.2"/>
<ellipse style="fill:#CE2027;" cx="21.6" cy="12.9" rx="2" ry="0.8"/>
<path style="fill:#F00000;" d="M29.4,42.9c-2.7-0.4-2.2,2.3-2.2,2.3c1.4,3.1,2.6,3.7,2.6,3.7c-1.3,1.5-5.5,1.8-5.5,1.8
	c-0.2,1.1,0.9,1.2,0.9,1.2c4.1-1.1,6.8-1.1,6.8-1.1C32.8,47.4,29.4,42.9,29.4,42.9z"/>
</svg>
