<?xml version="1.0" encoding="utf-8"?>
<!-- Generator: Adobe Illustrator 15.0.0, SVG Export Plug-In  -->
<!DOCTYPE svg PUBLIC "-//W3C//DTD SVG 1.1//EN" "http://www.w3.org/Graphics/SVG/1.1/DTD/svg11.dtd" [
	<!ENTITY ns_flows "http://ns.adobe.com/Flows/1.0/">
]>
<svg version="1.1"
	 xmlns="http://www.w3.org/2000/svg" xmlns:xlink="http://www.w3.org/1999/xlink" xmlns:a="http://ns.adobe.com/AdobeSVGViewerExtensions/3.0/"
	 x="0px" y="0px" width="42px" height="58px" viewBox="-0.9 -2.7 42 58"
	 style="overflow:visible;enable-background:new -0.9 -2.7 42 58;" xml:space="preserve">
<defs>
</defs>
<path style="fill:#9B0505;" d="M22.5,25.1c-0.2-3.9-10.4-8.6-10.4-8.6c-5.6-2-6.7,1.5-6.7,1.5c-0.3,1.6,2-0.2,2-0.2
	c4.7-1.3,8.8,2.8,8.8,2.8C21.1,30.4,22.5,25.1,22.5,25.1z"/>
<path style="fill:#9B0505;" d="M25.3,44.3c-1.8-2-3.2,0.3-3.2,0.3c-1,3.3-0.4,4.5-0.4,4.5c-2,0.3-5.3-2.2-5.3-2.2
	c-0.9,0.7-0.1,1.5-0.1,1.5c3.9,1.8,5.8,3.6,5.8,3.6C25,50,25.3,44.3,25.3,44.3z"/>
<path style="fill:#F00000;" d="M31.9,29.5c6.3,1.2,12.6,13.6,1.6,19c-5.5,2.7-12.1-3.3-16.9-10.9C11.7,30,12.6,22.3,16.4,20
	C20.1,17.7,23,27.8,31.9,29.5z"/>
<path style="fill:#8C714E;" d="M31.8,29.1c5.9,0.9,12.4,11.3,2.3,16.7C29,48.4,22.5,44,17.8,37.1s-4.2-14-0.7-16.3
	C20.5,18.5,23.5,27.8,31.8,29.1z"/>
<path style="fill:#B80026;" d="M31.6,30.3c4.6,0.2,10.5,7.7,3.2,12.7c-3.6,2.5-9-0.4-13.2-5.3c-4.2-4.9-4.4-10.5-2-12.5
	C22,23.1,25.1,30.1,31.6,30.3z"/>
<path style="fill:#CE2027;" d="M31.5,30.6c4.2,0.2,9.6,7,3,11.6c-3.3,2.3-8.3-0.3-12.2-4.9c-3.9-4.5-4.1-9.6-1.8-11.5
	C22.7,23.9,25.5,30.4,31.5,30.6z"/>
<path style="fill:#FC9C00;" d="M31.9,32c3.1,0.1,7,5.1,2.2,8.5c-2.4,1.7-6.1-0.2-8.9-3.6c-2.8-3.3-3-7-1.3-8.4
	C25.4,27.2,27.5,31.9,31.9,32z"/>
<ellipse style="fill:#F00000;" cx="18.2" cy="10.8" rx="7.7" ry="10.8"/>
<ellipse style="fill:#FFFFFF;" cx="18.8" cy="10.8" rx="7.3" ry="10.3"/>
<path style="fill:#8C714E;" d="M26.5,12.1c0,5.2-3,9.5-6.8,9.5c-3.7,0-6.8-4.2-6.8-9.5c0-5.2,3-9.5,6.8-9.5
	C23.5,2.7,26.5,6.9,26.5,12.1z"/>
<ellipse style="fill:#D4D1AB;" cx="20.1" cy="12.7" rx="6.1" ry="8.6"/>
<path style="fill:#214A23;" d="M32.8,47.6c2.3,1.1,4.9-4,2.2-2.8c-0.5,0.2-0.5,0.8-1.2,0.9c-0.8,0.1-1.1-0.4-1.8-0.2
	c-2.2,0.7-0.5,2.2,0.9,2.2"/>
<path style="fill:#F00000;" d="M29.6,43.4c-2.5,1.4-0.4,3.8-0.4,3.8c3.2,2.2,6.2,0.9,6.2,0.9c-0.1,2.4,4.6,6.2,4.6,6.2
	c0.5,1.2,1-0.4,1-0.4c-3.1-3.6-2.4-5.9-2.4-5.9C37.2,43.9,29.6,43.4,29.6,43.4z"/>
<path style="fill:#F00000;" d="M18.4,20.5c-2-3.3-13.2-2.4-13.2-2.4C-0.7,19,0,22.6,0,22.6c0.5,1.6,1.7-1.1,1.7-1.1
	c3.5-3.4,9.1-1.8,9.1-1.8C19.7,25.9,18.4,20.5,18.4,20.5z"/>
<circle style="fill:#D4D1AB;" cx="32.3" cy="36.2" r="3"/>
<circle style="fill:#CE2027;" cx="31.9" cy="35.1" r="1.2"/>
<line style="fill:none;stroke:#FFFFFF;stroke-linecap:round;stroke-miterlimit:10;" x1="21.8" y1="6.3" x2="21.8" y2="17.2"/>
<ellipse style="fill:#CE2027;" cx="22.1" cy="9.9" rx="2" ry="0.8"/>
</svg>
