<?xml version="1.0" encoding="utf-8"?>
<!-- Generator: Adobe Illustrator 15.0.0, SVG Export Plug-In  -->
<!DOCTYPE svg PUBLIC "-//W3C//DTD SVG 1.1//EN" "http://www.w3.org/Graphics/SVG/1.1/DTD/svg11.dtd" [
	<!ENTITY ns_flows "http://ns.adobe.com/Flows/1.0/">
]>
<svg version="1.1"
	 xmlns="http://www.w3.org/2000/svg" xmlns:xlink="http://www.w3.org/1999/xlink" xmlns:a="http://ns.adobe.com/AdobeSVGViewerExtensions/3.0/"
	 x="0px" y="0px" width="42px" height="58px" viewBox="-0.9 -2.7 42 58"
	 style="overflow:visible;enable-background:new -0.9 -2.7 42 58;" xml:space="preserve">
<defs>
</defs>
<path style="fill:#9B0505;" d="M18.5,25.1c0.2-3.9,10.4-8.6,10.4-8.6c5.6-2,6.7,1.5,6.7,1.5c0.3,1.6-2-0.2-2-0.2
	c-4.7-1.3-8.8,2.8-8.8,2.8C20,30.4,18.5,25.1,18.5,25.1z"/>
<path style="fill:#9B0505;" d="M15.8,44.3c1.8-2,3.2,0.3,3.2,0.3c1,3.3,0.4,4.5,0.4,4.5c2,0.3,5.3-2.2,5.3-2.2
	c0.9,0.7,0.1,1.5,0.1,1.5C21,50.3,19,52,19,52C16.1,50,15.8,44.3,15.8,44.3z"/>
<path style="fill:#F00000;" d="M9.2,29.5c-6.3,1.2-12.6,13.6-1.6,19c5.5,2.7,12.1-3.3,16.9-10.9c4.8-7.6,3.9-15.2,0.2-17.6
	C20.9,17.7,18.1,27.8,9.2,29.5z"/>
<path style="fill:#8C714E;" d="M9.3,29.1C3.4,30-3.1,40.4,7,45.7c5.1,2.7,11.6-1.7,16.3-8.6s4.2-14,0.7-16.3
	C20.6,18.5,17.6,27.8,9.3,29.1z"/>
<path style="fill:#B80026;" d="M9.5,30.3C4.9,30.5-1,38,6.2,43c3.6,2.5,9-0.4,13.2-5.3c4.2-4.9,4.4-10.5,2-12.5
	C19.1,23.1,16,30.1,9.5,30.3z"/>
<path style="fill:#CE2027;" d="M9.6,30.6c-4.2,0.2-9.6,7-3,11.6c3.3,2.3,8.3-0.3,12.2-4.9c3.9-4.5,4.1-9.6,1.8-11.5
	C18.4,23.9,15.6,30.4,9.6,30.6z"/>
<path style="fill:#FC9C00;" d="M9.2,32c-3.1,0.1-7,5.1-2.2,8.5c2.4,1.7,6.1-0.2,8.9-3.6c2.8-3.3,3-7,1.3-8.4
	C15.6,27.2,13.5,31.9,9.2,32z"/>
<ellipse style="fill:#F00000;" cx="22.8" cy="10.8" rx="7.7" ry="10.8"/>
<ellipse style="fill:#FFFFFF;" cx="22.3" cy="10.8" rx="7.3" ry="10.3"/>
<path style="fill:#8C714E;" d="M14.6,12.1c0,5.2,3,9.5,6.8,9.5c3.7,0,6.8-4.2,6.8-9.5c0-5.2-3-9.5-6.8-9.5
	C17.6,2.7,14.6,6.9,14.6,12.1z"/>
<ellipse style="fill:#D4D1AB;" cx="20.9" cy="12.7" rx="6.1" ry="8.6"/>
<path style="fill:#214A23;" d="M8.2,47.6c-2.3,1.1-4.9-4-2.2-2.8c0.5,0.2,0.5,0.8,1.2,0.9c0.8,0.1,1.1-0.4,1.8-0.2
	c2.2,0.7,0.5,2.2-0.9,2.2"/>
<path style="fill:#F00000;" d="M11.4,43.4c2.5,1.4,0.4,3.8,0.4,3.8C8.6,49.3,5.6,48,5.6,48C5.8,50.4,1,54.2,1,54.2
	c-0.5,1.2-1-0.4-1-0.4c3.1-3.6,2.4-5.9,2.4-5.9C3.8,43.9,11.4,43.4,11.4,43.4z"/>
<path style="fill:#F00000;" d="M22.7,20.5c2-3.3,13.2-2.4,13.2-2.4c5.9,0.9,5.1,4.6,5.1,4.6c-0.5,1.6-1.7-1.1-1.7-1.1
	c-3.5-3.4-9.1-1.8-9.1-1.8C21.3,25.9,22.7,20.5,22.7,20.5z"/>
<circle style="fill:#D4D1AB;" cx="8.8" cy="36.2" r="3"/>
<circle style="fill:#CE2027;" cx="9.2" cy="35.1" r="1.2"/>
<line style="fill:none;stroke:#FFFFFF;stroke-linecap:round;stroke-miterlimit:10;" x1="19.3" y1="6.3" x2="19.3" y2="17.2"/>
<ellipse style="fill:#CE2027;" cx="18.9" cy="9.9" rx="2" ry="0.8"/>
</svg>
