<?xml version="1.0" encoding="utf-8"?>
<!-- Generator: Adobe Illustrator 15.0.0, SVG Export Plug-In  -->
<!DOCTYPE svg PUBLIC "-//W3C//DTD SVG 1.1//EN" "http://www.w3.org/Graphics/SVG/1.1/DTD/svg11.dtd" [
	<!ENTITY ns_flows "http://ns.adobe.com/Flows/1.0/">
]>
<svg version="1.1"
	 xmlns="http://www.w3.org/2000/svg" xmlns:xlink="http://www.w3.org/1999/xlink" xmlns:a="http://ns.adobe.com/AdobeSVGViewerExtensions/3.0/"
	 x="0px" y="0px" width="39px" height="58px" viewBox="-1.8 -1.7 39 58"
	 style="overflow:visible;enable-background:new -1.8 -1.7 39 58;" xml:space="preserve">
<defs>
</defs>
<path style="fill:#9B0505;" d="M13.3,25.1c0.2-3.9,10.4-8.6,10.4-8.6c5.6-2,6.7,1.5,6.7,1.5c0.3,1.6-2-0.2-2-0.2
	c-4.7-1.3-8.8,2.8-8.8,2.8C14.7,30.4,13.3,25.1,13.3,25.1z"/>
<path style="fill:#9B0505;" d="M3.4,40.9C5.6,39.1,7,42,7,42c0.7,3.8-1.7,6-1.7,6c2.2,0.8,3.8,6.7,3.8,6.7c0.9,0.9-0.7,0.8-0.7,0.8
	c-2-4.3-4.5-4.6-4.5-4.6C0.9,48.1,3.4,40.9,3.4,40.9z"/>
<path style="fill:#F00000;" d="M6.5,29.8c-5.9,2.4-9.6,15.9,2.2,19c6,1.6,11.2-5.7,14.4-14.1c3.2-8.4,0.8-15.7-3.4-17.3
	C15.6,15.8,14.8,26.4,6.5,29.8z"/>
<path style="fill:#8C714E;" d="M5.6,30.3C0,32.5-4.1,44,6.9,47.1c5.5,1.5,10.9-4.2,14-12c3.1-7.8,1-14.6-2.9-16.1
	C14.2,17.5,13.4,27.3,5.6,30.3z"/>
<path style="fill:#B80026;" d="M7,30.8c-4.5,0.8-9.4,9-1.5,13c3.9,2,8.9-1.5,12.4-7c3.5-5.4,3-11,0.3-12.7
	C15.5,22.4,13.4,29.7,7,30.8z"/>
<path style="fill:#CE2027;" d="M7.2,31.1C3,31.8-1.5,39.3,5.7,43c3.6,1.9,8.2-1.4,11.4-6.4c3.2-5,2.8-10.1,0.3-11.7
	C15,23.3,13,30,7.2,31.1z"/>
<path style="fill:#FC9C00;" d="M6.9,32.5c-3,0.5-6.3,6-1,8.7c2.6,1.4,6-1,8.3-4.7c2.4-3.6,2-7.4,0.2-8.5
	C12.7,26.9,11.2,31.8,6.9,32.5z"/>
<ellipse style="fill:#F00000;" cx="17.8" cy="10.8" rx="7.7" ry="10.8"/>
<ellipse style="fill:#FFFFFF;" cx="17.3" cy="10.8" rx="7.3" ry="10.3"/>
<path style="fill:#8C714E;" d="M9.6,11.1c0,5.2,3,9.5,6.8,9.5c3.7,0,6.8-4.2,6.8-9.5c0-5.2-3-9.5-6.8-9.5C12.6,1.7,9.6,5.9,9.6,11.1
	z"/>
<ellipse style="fill:#D4D1AB;" cx="15.9" cy="11.7" rx="6.1" ry="8.6"/>
<circle style="fill:#D4D1AB;" cx="6.8" cy="37" r="3"/>
<circle style="fill:#CE2027;" cx="5.5" cy="36.7" r="1.2"/>
<path style="fill:#F00000;" d="M13.4,42.7c3.3,1,1.3,3.8,1.3,3.8c-3.3,2.8-5,2.8-5,2.8c0.7,2.5,4.4,4.6,4.4,4.6
	c0.9,1.6-0.8,1.4-0.8,1.4c-4.1-3.5-7.1-4.9-7.1-4.9C7,46,13.4,42.7,13.4,42.7z"/>
<line style="fill:none;stroke:#FFFFFF;stroke-linecap:round;stroke-miterlimit:10;" x1="13.8" y1="6.3" x2="13.8" y2="17.2"/>
<ellipse style="fill:#CE2027;" cx="13.8" cy="12.9" rx="2" ry="0.8"/>
<path style="fill:#F00000;" d="M17.4,20.5c2-3.3,13.2-2.4,13.2-2.4c5.9,0.9,5.1,4.6,5.1,4.6c-0.5,1.6-1.7-1.1-1.7-1.1
	c-3.5-3.4-9.1-1.8-9.1-1.8C16.1,25.9,17.4,20.5,17.4,20.5z"/>
<path style="fill:#214A23;" d="M4.9,45.3c-2.3-1.1-4.9,4-2.2,2.8c0.5-0.2,0.5-0.8,1.2-0.9c0.8-0.1,1.1,0.4,1.8,0.2
	c2.2-0.7,0.5-2.2-0.9-2.2"/>
</svg>
