<?xml version="1.0" encoding="utf-8"?>
<!-- Generator: Adobe Illustrator 15.0.0, SVG Export Plug-In  -->
<!DOCTYPE svg PUBLIC "-//W3C//DTD SVG 1.1//EN" "http://www.w3.org/Graphics/SVG/1.1/DTD/svg11.dtd" [
	<!ENTITY ns_flows "http://ns.adobe.com/Flows/1.0/">
]>
<svg version="1.1"
	 xmlns="http://www.w3.org/2000/svg" xmlns:xlink="http://www.w3.org/1999/xlink" xmlns:a="http://ns.adobe.com/AdobeSVGViewerExtensions/3.0/"
	 x="0px" y="0px" width="39px" height="58px" viewBox="-1.797 -1.655 39 58"
	 style="overflow:visible;enable-background:new -1.797 -1.655 39 58;" xml:space="preserve">
<defs>
</defs>
<path style="fill:#9B0505;" d="M22.535,25.125c-0.186-3.874-10.385-8.567-10.385-8.567c-5.605-2.042-6.709,1.489-6.709,1.489
	c-0.312,1.64,2-0.191,2-0.191c4.708-1.298,8.789,2.838,8.789,2.838C21.103,30.43,22.535,25.125,22.535,25.125z"/>
<path style="fill:#9B0505;" d="M32.418,40.875c-2.275-1.758-3.596,1.141-3.596,1.141c-0.728,3.797,1.692,6.023,1.692,6.023
	c-2.245,0.846-3.831,6.72-3.831,6.72c-0.936,0.949,0.724,0.78,0.724,0.78c2.048-4.301,4.484-4.554,4.484-4.554
	C34.939,48.064,32.418,40.875,32.418,40.875z"/>
<path style="fill:#F00000;" d="M29.323,29.787c5.936,2.42,9.646,15.862-2.242,18.962c-5.966,1.556-11.222-5.699-14.399-14.092
	c-3.179-8.392-0.808-15.718,3.353-17.265C20.196,15.846,20.959,26.375,29.323,29.787z"/>
<path style="fill:#8C714E;" d="M30.234,30.318c5.554,2.164,9.619,13.699-1.386,16.756c-5.523,1.533-10.933-4.229-14.012-11.982
	c-3.079-7.755-0.985-14.6,2.86-16.1C21.542,17.493,22.408,27.27,30.234,30.318z"/>
<path style="fill:#B80026;" d="M28.801,30.829c4.525,0.796,9.377,8.958,1.546,12.972c-3.931,2.015-8.904-1.544-12.427-6.977
	c-3.524-5.434-3.002-10.968-0.332-12.699C20.257,22.394,22.423,29.707,28.801,30.829z"/>
<path style="fill:#CE2027;" d="M28.64,31.077c4.164,0.732,8.628,8.243,1.422,11.937c-3.617,1.854-8.193-1.421-11.435-6.42
	c-3.242-4.999-2.761-10.091-0.306-11.685C20.778,23.316,22.771,30.046,28.64,31.077z"/>
<path style="fill:#FC9C00;" d="M28.853,32.547c3.04,0.534,6.298,6.016,1.039,8.712c-2.64,1.353-5.981-1.038-8.347-4.687
	c-2.367-3.649-2.017-7.365-0.224-8.528C23.115,26.881,24.57,31.792,28.853,32.547z"/>
<ellipse style="fill:#F00000;" cx="17.981" cy="10.801" rx="7.714" ry="10.798"/>
<ellipse style="fill:#FFFFFF;" cx="18.504" cy="10.801" rx="7.334" ry="10.267"/>
<path style="fill:#8C714E;" d="M26.231,11.125c0,5.221-3.024,9.455-6.754,9.455c-3.731,0-6.755-4.233-6.755-9.455
	c0-5.225,3.024-9.456,6.755-9.456C23.208,1.669,26.231,5.901,26.231,11.125z"/>
<ellipse style="fill:#D4D1AB;" cx="19.873" cy="11.65" rx="6.129" ry="8.581"/>
<circle style="fill:#D4D1AB;" cx="29.035" cy="36.973" r="3"/>
<circle style="fill:#CE2027;" cx="30.251" cy="36.684" r="1.227"/>
<path style="fill:#F00000;" d="M22.354,42.741c-3.272,1.003-1.267,3.842-1.267,3.842c3.299,2.832,4.998,2.783,4.998,2.783
	c-0.657,2.473-4.384,4.552-4.384,4.552c-0.868,1.632,0.822,1.396,0.822,1.396c4.054-3.547,7.105-4.947,7.105-4.947
	C28.753,45.984,22.354,42.741,22.354,42.741z"/>
<line style="fill:none;stroke:#FFFFFF;stroke-linecap:round;stroke-miterlimit:10;" x1="21.981" y1="6.345" x2="21.981" y2="17.238"/>
<ellipse style="fill:#CE2027;" cx="21.981" cy="12.918" rx="1.977" ry="0.75"/>
<path style="fill:#F00000;" d="M18.411,20.533c-2.044-3.296-13.239-2.445-13.239-2.445c-5.892,0.939-5.142,4.562-5.142,4.562
	c0.524,1.585,1.655-1.138,1.655-1.138c3.487-3.424,9.061-1.788,9.061-1.788C19.735,25.866,18.411,20.533,18.411,20.533z"/>
<path style="fill:#214A23;" d="M30.938,45.319c2.332-1.067,4.919,3.955,2.194,2.798c-0.548-0.233-0.542-0.774-1.208-0.875
	c-0.77-0.117-1.087,0.435-1.825,0.194c-2.161-0.705-0.533-2.224,0.94-2.21"/>
</svg>
