<?xml version="1.0" encoding="utf-8"?>
<!-- Generator: Adobe Illustrator 15.0.0, SVG Export Plug-In  -->
<!DOCTYPE svg PUBLIC "-//W3C//DTD SVG 1.1//EN" "http://www.w3.org/Graphics/SVG/1.1/DTD/svg11.dtd" [
	<!ENTITY ns_flows "http://ns.adobe.com/Flows/1.0/">
]>
<svg version="1.1"
	 xmlns="http://www.w3.org/2000/svg" xmlns:xlink="http://www.w3.org/1999/xlink" xmlns:a="http://ns.adobe.com/AdobeSVGViewerExtensions/3.0/"
	 x="0px" y="0px" width="45px" height="58px" viewBox="-0.9 -2.7 45 58"
	 style="overflow:visible;enable-background:new -0.9 -2.7 45 58;" xml:space="preserve">
<defs>
</defs>
<path style="fill:#9B0505;" d="M23.5,27.5c0.5-3.9,11-7.8,11-7.8c5.7-1.6,6.6,2,6.6,2c0.2,1.7-2-0.3-2-0.3c-4.6-1.6-9,2.2-9,2.2
	C24.6,32.9,23.5,27.5,23.5,27.5z"/>
<path style="fill:#9B0505;" d="M11.4,43.4c2.5,1.4,0.4,3.8,0.4,3.8C8.6,49.3,5.6,48,5.6,48C5.8,50.4,1,54.2,1,54.2
	c-0.5,1.2-1-0.4-1-0.4c3.1-3.6,2.4-5.9,2.4-5.9C3.8,43.9,11.4,43.4,11.4,43.4z"/>
<path style="fill:#F00000;" d="M12.2,29.5c-6.3,1.2-12.6,13.6-1.6,19c5.5,2.7,12.1-3.3,16.9-10.9c4.8-7.6,3.9-15.2,0.2-17.6
	C23.9,17.7,21.1,27.8,12.2,29.5z"/>
<path style="fill:#8C714E;" d="M12.3,29.1C6.4,30-0.1,40.4,10,45.7c5.1,2.7,11.6-1.7,16.3-8.6s4.2-14,0.7-16.3
	C23.6,18.5,20.6,27.8,12.3,29.1z"/>
<path style="fill:#B80026;" d="M12.4,30.3C7.9,30.5,2,38,9.2,43c3.6,2.5,9-0.4,13.2-5.3c4.2-4.9,4.4-10.5,2-12.5
	C22,23.1,18.9,30.1,12.4,30.3z"/>
<path style="fill:#CE2027;" d="M12.6,30.6c-4.2,0.2-9.6,7-3,11.6c3.3,2.3,8.3-0.3,12.2-4.9c3.9-4.5,4.1-9.6,1.8-11.5
	C21.4,23.9,18.5,30.4,12.6,30.6z"/>
<path style="fill:#FC9C00;" d="M12.2,32c-3.1,0.1-7,5.1-2.2,8.5c2.4,1.7,6.1-0.2,8.9-3.6c2.8-3.3,3-7,1.3-8.4
	C18.6,27.2,16.5,31.9,12.2,32z"/>
<ellipse style="fill:#F00000;" cx="25.8" cy="10.8" rx="7.7" ry="10.8"/>
<ellipse style="fill:#FFFFFF;" cx="25.3" cy="10.8" rx="7.3" ry="10.3"/>
<path style="fill:#8C714E;" d="M17.5,12.1c0,5.2,3,9.5,6.8,9.5c3.7,0,6.8-4.2,6.8-9.5c0-5.2-3-9.5-6.8-9.5
	C20.6,2.7,17.5,6.9,17.5,12.1z"/>
<ellipse style="fill:#D4D1AB;" cx="23.9" cy="12.7" rx="6.1" ry="8.6"/>
<circle style="fill:#D4D1AB;" cx="11.7" cy="36.2" r="3"/>
<circle style="fill:#CE2027;" cx="12.2" cy="35.1" r="1.2"/>
<line style="fill:none;stroke:#FFFFFF;stroke-linecap:round;stroke-miterlimit:10;" x1="22.3" y1="6.3" x2="22.3" y2="17.2"/>
<ellipse style="fill:#CE2027;" cx="21.9" cy="9.9" rx="2" ry="0.8"/>
<path style="fill:#214A23;" d="M10.6,47.2c-1,2.4,4.2,4.7,2.9,2.1c-0.3-0.5-0.8-0.5-0.9-1.2c-0.2-0.8,0.4-1.1,0.1-1.8
	c-0.8-2.1-2.2-0.4-2.2,1"/>
<path style="fill:#F00000;" d="M26.5,23.1c0.2-3.9,10.4-8.6,10.4-8.6c5.6-2,6.7,1.5,6.7,1.5c0.3,1.6-2-0.2-2-0.2
	c-4.7-1.3-8.8,2.8-8.8,2.8C28,28.4,26.5,23.1,26.5,23.1z"/>
<path style="fill:#F00000;" d="M17.9,45.2c2.5-1.1,2.7,1.7,2.7,1.7c-0.5,3.4-1.6,4.2-1.6,4.2c1.7,1.2,5.7,0.4,5.7,0.4
	c0.5,1-0.5,1.4-0.5,1.4c-4.3-0.1-6.8,0.7-6.8,0.7C15.7,50.4,17.9,45.2,17.9,45.2z"/>
</svg>
