<?xml version="1.0" encoding="utf-8"?>
<!-- Generator: Adobe Illustrator 15.0.0, SVG Export Plug-In  -->
<!DOCTYPE svg PUBLIC "-//W3C//DTD SVG 1.1//EN" "http://www.w3.org/Graphics/SVG/1.1/DTD/svg11.dtd" [
	<!ENTITY ns_flows "http://ns.adobe.com/Flows/1.0/">
]>
<svg version="1.1"
	 xmlns="http://www.w3.org/2000/svg" xmlns:xlink="http://www.w3.org/1999/xlink" xmlns:a="http://ns.adobe.com/AdobeSVGViewerExtensions/3.0/"
	 x="0px" y="0px" width="45px" height="58px" viewBox="-0.9 -2.7 45 58"
	 style="overflow:visible;enable-background:new -0.9 -2.7 45 58;" xml:space="preserve">
<defs>
</defs>
<path style="fill:#9B0505;" d="M20.2,27.5c-0.5-3.9-11-7.8-11-7.8c-5.7-1.6-6.6,2-6.6,2c-0.2,1.7,2-0.3,2-0.3c4.6-1.6,9,2.2,9,2.2
	C19.1,32.9,20.2,27.5,20.2,27.5z"/>
<path style="fill:#9B0505;" d="M32.2,43.4c-2.5,1.4-0.4,3.8-0.4,3.8C35,49.3,38,48,38,48c-0.1,2.4,4.6,6.2,4.6,6.2
	c0.5,1.2,1-0.4,1-0.4c-3.1-3.6-2.4-5.9-2.4-5.9C39.8,43.9,32.2,43.4,32.2,43.4z"/>
<path style="fill:#F00000;" d="M31.5,29.5c6.3,1.2,12.6,13.6,1.6,19c-5.5,2.7-12.1-3.3-16.9-10.9C11.4,30,12.2,22.3,16,20
	C19.8,17.7,22.6,27.8,31.5,29.5z"/>
<path style="fill:#8C714E;" d="M31.4,29.1c5.9,0.9,12.4,11.3,2.3,16.7c-5.1,2.7-11.6-1.7-16.3-8.6s-4.2-14-0.7-16.3
	C20.1,18.5,23.1,27.8,31.4,29.1z"/>
<path style="fill:#B80026;" d="M31.2,30.3c4.6,0.2,10.5,7.7,3.2,12.7c-3.6,2.5-9-0.4-13.2-5.3c-4.2-4.9-4.4-10.5-2-12.5
	C21.6,23.1,24.8,30.1,31.2,30.3z"/>
<path style="fill:#CE2027;" d="M31.1,30.6c4.2,0.2,9.6,7,3,11.6c-3.3,2.3-8.3-0.3-12.2-4.9c-3.9-4.5-4.1-9.6-1.8-11.5
	C22.3,23.9,25.1,30.4,31.1,30.6z"/>
<path style="fill:#FC9C00;" d="M31.5,32c3.1,0.1,7,5.1,2.2,8.5c-2.4,1.7-6.1-0.2-8.9-3.6c-2.8-3.3-3-7-1.3-8.4
	C25.1,27.2,27.2,31.9,31.5,32z"/>
<ellipse style="fill:#F00000;" cx="17.9" cy="10.8" rx="7.7" ry="10.8"/>
<ellipse style="fill:#FFFFFF;" cx="18.4" cy="10.8" rx="7.3" ry="10.3"/>
<path style="fill:#8C714E;" d="M26.1,12.1c0,5.2-3,9.5-6.8,9.5c-3.7,0-6.8-4.2-6.8-9.5c0-5.2,3-9.5,6.8-9.5
	C23.1,2.7,26.1,6.9,26.1,12.1z"/>
<ellipse style="fill:#D4D1AB;" cx="19.8" cy="12.7" rx="6.1" ry="8.6"/>
<circle style="fill:#D4D1AB;" cx="31.9" cy="36.2" r="3"/>
<circle style="fill:#CE2027;" cx="31.5" cy="35.1" r="1.2"/>
<line style="fill:none;stroke:#FFFFFF;stroke-linecap:round;stroke-miterlimit:10;" x1="21.4" y1="6.3" x2="21.4" y2="17.2"/>
<ellipse style="fill:#CE2027;" cx="21.8" cy="9.9" rx="2" ry="0.8"/>
<path style="fill:#214A23;" d="M33.1,47.2c1,2.4-4.2,4.7-2.9,2.1c0.3-0.5,0.8-0.5,0.9-1.2c0.2-0.8-0.4-1.1-0.1-1.8
	c0.8-2.1,2.2-0.4,2.2,1"/>
<path style="fill:#F00000;" d="M17.1,23.1c-0.2-3.9-10.4-8.6-10.4-8.6C1.1,12.5,0,16,0,16c-0.3,1.6,2-0.2,2-0.2
	c4.7-1.3,8.8,2.8,8.8,2.8C15.7,28.4,17.1,23.1,17.1,23.1z"/>
<path style="fill:#F00000;" d="M25.8,45.2c-2.5-1.1-2.7,1.7-2.7,1.7c0.5,3.4,1.6,4.2,1.6,4.2c-1.7,1.2-5.7,0.4-5.7,0.4
	c-0.5,1,0.5,1.4,0.5,1.4c4.3-0.1,6.8,0.7,6.8,0.7C28,50.4,25.8,45.2,25.8,45.2z"/>
</svg>
