<?xml version="1.0" encoding="utf-8"?>
<!-- Generator: Adobe Illustrator 15.0.0, SVG Export Plug-In  -->
<!DOCTYPE svg PUBLIC "-//W3C//DTD SVG 1.1//EN" "http://www.w3.org/Graphics/SVG/1.1/DTD/svg11.dtd" [
	<!ENTITY ns_flows "http://ns.adobe.com/Flows/1.0/">
]>
<svg version="1.1"
	 xmlns="http://www.w3.org/2000/svg" xmlns:xlink="http://www.w3.org/1999/xlink" xmlns:a="http://ns.adobe.com/AdobeSVGViewerExtensions/3.0/"
	 x="0px" y="0px" width="57px" height="80px" viewBox="-2 -0.6 57 80"
	 style="overflow:visible;enable-background:new -2 -0.6 57 80;" xml:space="preserve">
<defs>
</defs>
<path style="fill:#FFBF31;" d="M27.9,77.4c0,0.5-0.7,0.9-1.6,0.9l0,0c-0.9,0-1.6-0.4-1.6-0.9V0.9c0-0.5,0.7-0.9,1.6-0.9l0,0
	c0.9,0,1.6,0.4,1.6,0.9V77.4z"/>
<path style="fill:#FFBF31;" d="M14,14.8c-0.2,0-0.3-0.7-0.3-1.6l0,0c0-0.9,0.1-1.6,0.3-1.6h24.3c0.2,0,0.3,0.7,0.3,1.6l0,0
	c0,0.9-0.1,1.6-0.3,1.6H14z"/>
<radialGradient id="SVGID_3_" cx="26.2559" cy="48.8677" r="25.9446" gradientUnits="userSpaceOnUse">
	<stop  offset="0" style="stop-color:#B50046"/>
	<stop  offset="8.588957e-02" style="stop-color:#2EFF92"/>
	<stop  offset="0.1472" style="stop-color:#6600E7"/>
	<stop  offset="0.9693" style="stop-color:#FF905C"/>
</radialGradient>
<circle style="fill:url(#SVGID_3_);" cx="26.3" cy="48.9" r="25.9"/>
<radialGradient id="SVGID_4_" cx="52.5112" cy="48.8086" r="25.9446" gradientTransform="matrix(-1 0 0 -1 78.4561 97.7354)" gradientUnits="userSpaceOnUse">
	<stop  offset="0" style="stop-color:#B50046"/>
	<stop  offset="8.588957e-02" style="stop-color:#2EFF92"/>
	<stop  offset="0.1472" style="stop-color:#6600E7"/>
	<stop  offset="0.9693" style="stop-color:#FF905C"/>
</radialGradient>
<path style="fill:url(#SVGID_4_);" d="M25.9,74.9L25.9,74.9l0-51.9h0C11.6,23,0,34.6,0,48.9C0,63.3,11.6,74.9,25.9,74.9z"/>
</svg>
