<?xml version="1.0" encoding="utf-8"?>
<!-- Generator: Adobe Illustrator 15.0.0, SVG Export Plug-In  -->
<!DOCTYPE svg PUBLIC "-//W3C//DTD SVG 1.1//EN" "http://www.w3.org/Graphics/SVG/1.1/DTD/svg11.dtd" [
	<!ENTITY ns_flows "http://ns.adobe.com/Flows/1.0/">
]>
<svg version="1.1"
	 xmlns="http://www.w3.org/2000/svg" xmlns:xlink="http://www.w3.org/1999/xlink" xmlns:a="http://ns.adobe.com/AdobeSVGViewerExtensions/3.0/"
	 x="0px" y="0px" width="57px" height="80px" viewBox="-2.5 -0.6 57 80"
	 style="overflow:visible;enable-background:new -2.5 -0.6 57 80;" xml:space="preserve">
<defs>
</defs>
<circle style="fill:#4CFF1A;" cx="25.7" cy="48.7" r="25.7"/>
<path style="fill:#FFBF31;" d="M27.5,77.4c0,0.5-0.7,0.9-1.6,0.9l0,0c-0.9,0-1.6-0.4-1.6-0.9V0.9C24.3,0.4,25,0,25.9,0l0,0
	c0.9,0,1.6,0.4,1.6,0.9V77.4z"/>
<path style="fill:#FFBF31;" d="M13.5,14.8c-0.2,0-0.3-0.7-0.3-1.6l0,0c0-0.9,0.1-1.6,0.3-1.6h24.3c0.2,0,0.3,0.7,0.3,1.6l0,0
	c0,0.9-0.1,1.6-0.3,1.6H13.5z"/>
<circle style="fill:#FFC100;" cx="25.7" cy="48.6" r="24.2"/>
<circle style="fill:#FF7700;" cx="25.7" cy="48.3" r="20.9"/>
<path style="fill:#4CFF1A;" d="M51.7,48.8C51.7,63,40.2,74.5,26,74.5V23.1C40.2,23.1,51.7,34.7,51.7,48.8z"/>
<path style="fill:#FFC100;" d="M50.2,48.7c0,13.4-10.8,24.2-24.2,24.2V24.5C39.4,24.5,50.2,35.3,50.2,48.7z"/>
<path style="fill:#FF7700;" d="M46.9,48.5c0,11.5-9.4,20.9-20.9,20.9V27.6C37.6,27.6,46.9,36.9,46.9,48.5z"/>
<circle style="fill:#004CA3;" cx="25.7" cy="48.3" r="16.9"/>
<g stroke="black">
	<circle style="fill:#170F16;" cx="25.9" cy="49.3" r="4.6"/>
	<circle style="fill:#170F16;" cx="25.9" cy="38.3" r="2.3"/>
	<circle style="fill:#170F16;" cx="36.9" cy="44.8" r="2.3"/>
	<circle style="fill:#170F16;" cx="14" cy="44.8" r="2.3"/>
	<circle style="fill:#170F16;" cx="18.6" cy="58.5" r="2.3"/>
	<circle style="fill:#170F16;" cx="32.8" cy="58.5" r="2.3"/>
	<animateTransform attributeType="xml" attributeName="transform" type="rotate"
		from="0 27 47.9"
		to="360 27 47.9"
		begin="0s"
		repeatCount="indefinite" dur="0.75s" additive="sum" />
</g>
</svg>
