<?xml version="1.0" encoding="utf-8"?>
<!-- Generator: Adobe Illustrator 15.0.0, SVG Export Plug-In  -->
<!DOCTYPE svg PUBLIC "-//W3C//DTD SVG 1.1//EN" "http://www.w3.org/Graphics/SVG/1.1/DTD/svg11.dtd" [
	<!ENTITY ns_flows "http://ns.adobe.com/Flows/1.0/">
]>
<svg version="1.1"
	 xmlns="http://www.w3.org/2000/svg" xmlns:xlink="http://www.w3.org/1999/xlink" xmlns:a="http://ns.adobe.com/AdobeSVGViewerExtensions/3.0/"
	 x="0px" y="0px" width="78px" height="78px" viewBox="-8.934 0 78 78"
	 style="overflow:visible;enable-background:new -8.934 0 78 78;" xml:space="preserve">
<defs>
</defs>
<circle style="fill:#4CFF1A;" cx="25.701" cy="48.715" r="25.701"/>
<path style="fill:#FFBF31;" d="M27.458,77.381c0,0.511-0.7,0.924-1.564,0.924l0,0c-0.865,0-1.565-0.413-1.565-0.924V0.924
	c0-0.511,0.7-0.924,1.565-0.924l0,0c0.864,0,1.564,0.413,1.564,0.924V77.381z"/>
<path style="fill:#FFBF31;" d="M13.545,14.762c-0.162,0-0.293-0.7-0.293-1.564l0,0c0-0.865,0.131-1.565,0.293-1.565h24.299
	c0.162,0,0.293,0.7,0.293,1.565l0,0c0,0.864-0.131,1.564-0.293,1.564H13.545z"/>
<circle style="fill:#FFC100;" cx="25.701" cy="48.581" r="24.201"/>
<circle style="fill:#FF7700;" cx="25.701" cy="48.331" r="20.896"/>
<path style="fill:#4CFF1A;" d="M51.736,48.843c0,14.191-11.504,25.697-25.695,25.7V23.142
	C40.232,23.145,51.736,34.651,51.736,48.843z"/>
<path style="fill:#FFC100;" d="M50.236,48.709c0,13.363-10.832,24.197-24.195,24.2V24.508
	C39.404,24.511,50.236,35.346,50.236,48.709z"/>
<path style="fill:#FF7700;" d="M46.932,48.459c0,11.539-9.353,20.893-20.891,20.896V27.563
	C37.579,27.566,46.932,36.921,46.932,48.459z"/>
<circle style="fill:#004CA3;" cx="25.701" cy="48.331" r="16.933"/>
<circle style="fill:#170F16;" cx="25.904" cy="49.332" r="4.576"/>
<circle style="fill:#170F16;" cx="25.904" cy="38.35" r="2.288"/>
<circle style="fill:#170F16;" cx="36.887" cy="44.757" r="2.288"/>
<circle style="fill:#170F16;" cx="14.006" cy="44.757" r="2.288"/>
<circle style="fill:#170F16;" cx="18.582" cy="58.483" r="2.288"/>
<circle style="fill:#170F16;" cx="32.768" cy="58.483" r="2.288"/>
<path style="fill:#9B0505;" d="M83.124,53.009c-0.068-3.877-10.12-8.879-10.12-8.879c-5.541-2.211-6.751,1.285-6.751,1.285
	c-0.362,1.629,2.004-0.13,2.004-0.13c4.747-1.155,8.699,3.104,8.699,3.104C81.531,58.269,83.124,53.009,83.124,53.009z"/>
<ellipse transform="matrix(0.6967 -0.7173 0.7173 0.6967 -5.7625 63.0117)" style="fill:#F00000;" cx="71.638" cy="38.321" rx="7.714" ry="10.798"/>
<ellipse transform="matrix(0.6967 -0.7174 0.7174 0.6967 -5.3835 63.1593)" style="fill:#FFFFFF;" cx="72.002" cy="37.946" rx="7.334" ry="10.267"/>
<ellipse transform="matrix(0.6967 -0.7174 0.7174 0.6967 -5.0511 64.3961)" style="fill:#8C714E;" cx="73.631" cy="38.172" rx="6.755" ry="9.454"/>
<ellipse transform="matrix(0.6967 -0.7173 0.7173 0.6967 -4.912 64.8885)" style="fill:#D4D1AB;" cx="74.283" cy="38.253" rx="6.129" ry="8.58"/>
<path style="fill:#F00000;" d="M79.982,48.315c-2.717-2.769-13.453,0.515-13.453,0.515c-5.542,2.208-4.017,5.578-4.017,5.578
	c0.858,1.432,1.365-1.473,1.365-1.473c2.651-4.105,8.449-3.731,8.449-3.731C82.443,53.228,79.982,48.315,79.982,48.315z"/>
</svg>
