<?xml version="1.0" encoding="utf-8"?>
<!-- Generator: Adobe Illustrator 15.0.0, SVG Export Plug-In  -->
<!DOCTYPE svg PUBLIC "-//W3C//DTD SVG 1.1//EN" "http://www.w3.org/Graphics/SVG/1.1/DTD/svg11.dtd" [
	<!ENTITY ns_flows "http://ns.adobe.com/Flows/1.0/">
]>
<svg version="1.1"
	 xmlns="http://www.w3.org/2000/svg" xmlns:xlink="http://www.w3.org/1999/xlink" xmlns:a="http://ns.adobe.com/AdobeSVGViewerExtensions/3.0/"
	 x="0px" y="0px" width="1020px" height="680px" viewBox="0 0 1020 680"
	 style="overflow:visible;enable-background:new 0 0 1020 680;" xml:space="preserve">
<defs>
</defs>
<linearGradient id="SVGID_3_" gradientUnits="userSpaceOnUse" x1="510.019" y1="681" x2="510.019" y2="4.882812e-04">
	<stop  offset="9.815951e-02" style="stop-color:#0A0014"/>
	<stop  offset="0.9571" style="stop-color:#59005C"/>
</linearGradient>
<rect style="fill:url(#SVGID_3_);" width="1020" height="681"/>
<circle style="fill:#FFFCE1;" cx="18.3" cy="25.6" r="1.5"/>
<circle style="fill:#FFFCE1;" cx="61.8" cy="25.6" r="1.5"/>
<circle style="fill:#FFFCE1;" cx="39.9" cy="47.2" r="1.5"/>
<circle style="fill:#FFFCE1;" cx="18.3" cy="70" r="1.5"/>
<circle style="fill:#FFFCE1;" cx="61.8" cy="70" r="1.5"/>
<circle style="fill:#FFFCE1;" cx="39.9" cy="91.6" r="1.5"/>
<circle style="fill:#FFFCE1;" cx="133.7" cy="91.6" r="1.5"/>
<circle style="fill:#FFFCE1;" cx="90.2" cy="91.6" r="1.5"/>
<circle style="fill:#FFFCE1;" cx="112.1" cy="70" r="1.5"/>
<circle style="fill:#FFFCE1;" cx="133.7" cy="47.2" r="1.5"/>
<circle style="fill:#FFFCE1;" cx="90.2" cy="47.2" r="1.5"/>
<circle style="fill:#FFFCE1;" cx="112.1" cy="25.6" r="1.5"/>
<circle style="fill:#FFFCE1;" cx="157.2" cy="25.6" r="1.5"/>
<circle style="fill:#FFFCE1;" cx="200.7" cy="25.6" r="1.5"/>
<circle style="fill:#FFFCE1;" cx="178.8" cy="47.2" r="1.5"/>
<circle style="fill:#FFFCE1;" cx="157.2" cy="70" r="1.5"/>
<circle style="fill:#FFFCE1;" cx="200.7" cy="70" r="1.5"/>
<circle style="fill:#FFFCE1;" cx="178.8" cy="91.6" r="1.5"/>
<circle style="fill:#FFFCE1;" cx="272.6" cy="91.6" r="1.5"/>
<circle style="fill:#FFFCE1;" cx="229.1" cy="91.6" r="1.5"/>
<circle style="fill:#FFFCE1;" cx="251" cy="70" r="1.5"/>
<circle style="fill:#FFFCE1;" cx="272.6" cy="47.2" r="1.5"/>
<circle style="fill:#FFFCE1;" cx="229.1" cy="47.2" r="1.5"/>
<circle style="fill:#FFFCE1;" cx="251" cy="25.6" r="1.5"/>
<circle style="fill:#FFFCE1;" cx="302.9" cy="25.6" r="1.5"/>
<circle style="fill:#FFFCE1;" cx="346.4" cy="25.6" r="1.5"/>
<circle style="fill:#FFFCE1;" cx="324.5" cy="47.2" r="1.5"/>
<circle style="fill:#FFFCE1;" cx="302.9" cy="70" r="1.5"/>
<circle style="fill:#FFFCE1;" cx="346.4" cy="70" r="1.5"/>
<circle style="fill:#FFFCE1;" cx="324.5" cy="91.6" r="1.5"/>
<circle style="fill:#FFFCE1;" cx="418.2" cy="91.6" r="1.5"/>
<circle style="fill:#FFFCE1;" cx="374.7" cy="91.6" r="1.5"/>
<circle style="fill:#FFFCE1;" cx="396.6" cy="70" r="1.5"/>
<circle style="fill:#FFFCE1;" cx="418.2" cy="47.2" r="1.5"/>
<circle style="fill:#FFFCE1;" cx="374.7" cy="47.2" r="1.5"/>
<circle style="fill:#FFFCE1;" cx="396.6" cy="25.6" r="1.5"/>
<circle style="fill:#FFFCE1;" cx="441.8" cy="25.6" r="1.5"/>
<circle style="fill:#FFFCE1;" cx="485.3" cy="25.6" r="1.5"/>
<circle style="fill:#FFFCE1;" cx="463.4" cy="47.2" r="1.5"/>
<circle style="fill:#FFFCE1;" cx="441.8" cy="70" r="1.5"/>
<circle style="fill:#FFFCE1;" cx="485.3" cy="70" r="1.5"/>
<circle style="fill:#FFFCE1;" cx="463.4" cy="91.6" r="1.5"/>
<circle style="fill:#FFFCE1;" cx="557.1" cy="91.6" r="1.5"/>
<circle style="fill:#FFFCE1;" cx="513.6" cy="91.6" r="1.5"/>
<circle style="fill:#FFFCE1;" cx="535.5" cy="70" r="1.5"/>
<circle style="fill:#FFFCE1;" cx="557.1" cy="47.2" r="1.5"/>
<circle style="fill:#FFFCE1;" cx="513.6" cy="47.2" r="1.5"/>
<circle style="fill:#FFFCE1;" cx="535.5" cy="25.6" r="1.5"/>
<circle style="fill:#FFFCE1;" cx="581.9" cy="25.6" r="1.5"/>
<circle style="fill:#FFFCE1;" cx="625.3" cy="25.6" r="1.5"/>
<circle style="fill:#FFFCE1;" cx="603.5" cy="47.2" r="1.5"/>
<circle style="fill:#FFFCE1;" cx="581.9" cy="70" r="1.5"/>
<circle style="fill:#FFFCE1;" cx="625.3" cy="70" r="1.5"/>
<circle style="fill:#FFFCE1;" cx="603.5" cy="91.6" r="1.5"/>
<circle style="fill:#FFFCE1;" cx="697.2" cy="91.6" r="1.5"/>
<circle style="fill:#FFFCE1;" cx="653.7" cy="91.6" r="1.5"/>
<circle style="fill:#FFFCE1;" cx="675.6" cy="70" r="1.5"/>
<circle style="fill:#FFFCE1;" cx="697.2" cy="47.2" r="1.5"/>
<circle style="fill:#FFFCE1;" cx="653.7" cy="47.2" r="1.5"/>
<circle style="fill:#FFFCE1;" cx="675.6" cy="25.6" r="1.5"/>
<circle style="fill:#FFFCE1;" cx="720.8" cy="25.6" r="1.5"/>
<circle style="fill:#FFFCE1;" cx="764.2" cy="25.6" r="1.5"/>
<circle style="fill:#FFFCE1;" cx="742.4" cy="47.2" r="1.5"/>
<circle style="fill:#FFFCE1;" cx="720.8" cy="70" r="1.5"/>
<circle style="fill:#FFFCE1;" cx="764.2" cy="70" r="1.5"/>
<circle style="fill:#FFFCE1;" cx="742.4" cy="91.6" r="1.5"/>
<circle style="fill:#FFFCE1;" cx="836.1" cy="91.6" r="1.5"/>
<circle style="fill:#FFFCE1;" cx="792.6" cy="91.6" r="1.5"/>
<circle style="fill:#FFFCE1;" cx="814.5" cy="70" r="1.5"/>
<circle style="fill:#FFFCE1;" cx="836.1" cy="47.2" r="1.5"/>
<circle style="fill:#FFFCE1;" cx="792.6" cy="47.2" r="1.5"/>
<circle style="fill:#FFFCE1;" cx="814.5" cy="25.6" r="1.5"/>
<circle style="fill:#FFFCE1;" cx="862.3" cy="25.6" r="1.5"/>
<circle style="fill:#FFFCE1;" cx="905.8" cy="25.6" r="1.5"/>
<circle style="fill:#FFFCE1;" cx="883.9" cy="47.2" r="1.5"/>
<circle style="fill:#FFFCE1;" cx="862.3" cy="70" r="1.5"/>
<circle style="fill:#FFFCE1;" cx="905.8" cy="70" r="1.5"/>
<circle style="fill:#FFFCE1;" cx="883.9" cy="91.6" r="1.5"/>
<circle style="fill:#FFFCE1;" cx="977.6" cy="91.6" r="1.5"/>
<circle style="fill:#FFFCE1;" cx="934.1" cy="91.6" r="1.5"/>
<circle style="fill:#FFFCE1;" cx="956" cy="70" r="1.5"/>
<circle style="fill:#FFFCE1;" cx="977.6" cy="47.2" r="1.5"/>
<circle style="fill:#FFFCE1;" cx="934.1" cy="47.2" r="1.5"/>
<circle style="fill:#FFFCE1;" cx="956" cy="25.6" r="1.5"/>
<circle style="fill:#FFFCE1;" cx="1001.2" cy="25.6" r="1.5"/>
<circle style="fill:#FFFCE1;" cx="1001.2" cy="70" r="1.5"/>
</svg>
